<svg width="900" height="1100" viewBox="0 0 900 1100" fill="none" xmlns="http://www.w3.org/2000/svg">
  <rect width="900" height="1100" rx="40" fill="#FFF7F2"/>
  <rect x="36" y="34" width="828" height="1032" rx="34" fill="#1D3C3A"/>
  <circle cx="684" cy="236" r="132" fill="#FFB28A" fill-opacity="0.24"/>
  <circle cx="242" cy="878" r="186" fill="#8A7BF6" fill-opacity="0.20"/>
  <rect x="182" y="178" width="536" height="720" rx="36" fill="#FDE7DA"/>
  <rect x="216" y="224" width="468" height="642" rx="28" fill="#FFF8F2"/>
  <rect x="286" y="286" width="328" height="360" rx="160" fill="#1F2937"/>
  <path d="M306 646C306 561.3 372.3 494 457 494H492C576.7 494 643 561.3 643 646V686H306V646Z" fill="#2D4A4A"/>
  <circle cx="452" cy="376" r="108" fill="#F1C39D"/>
  <ellipse cx="425" cy="382" rx="36" ry="50" fill="#1F2A2A"/>
  <ellipse cx="492" cy="382" rx="36" ry="50" fill="#1F2A2A"/>
  <path d="M390 418C402 448 424 466 452 466C478 466 500 448 512 418" stroke="#C88867" stroke-width="16" stroke-linecap="round"/>
  <path d="M384 333C384 275 425 236 485 236C542 236 584 275 584 333V360H384V333Z" fill="#1F2A2A"/>
  <rect x="372" y="708" width="174" height="116" rx="24" fill="#2D4A4A"/>
  <rect x="398" y="676" width="120" height="56" rx="16" fill="#FF7AA2"/>
  <path d="M438 756L352 840" stroke="#FF7AA2" stroke-width="18" stroke-linecap="round"/>
  <path d="M472 756L552 836" stroke="#8A7BF6" stroke-width="18" stroke-linecap="round"/>
  <path d="M360 850H553" stroke="#1D3C3A" stroke-width="16" stroke-linecap="round"/>
  <rect x="260" y="152" width="360" height="72" rx="20" fill="#FF7AA2" fill-opacity="0.18"/>
  <text x="450" y="196" text-anchor="middle" fill="#FFFFFF" font-family="Arial, sans-serif" font-size="34" font-weight="700">P'Toe • Live</text>
</svg>
